<svg width="16" height="20" viewBox="0 0 16 20" fill="none" xmlns="http://www.w3.org/2000/svg">
<path id="Icon Color" fill-rule="evenodd" clip-rule="evenodd" d="M9.75 0H2.75C1.23122 0 0 1.23122 0 2.75V16.75C0 18.2688 1.23122 19.5 2.75 19.5H12.75C14.2688 19.5 15.5 18.2688 15.5 16.75V5.75C15.5 5.54274 15.4159 5.35512 15.28 5.21937C15.1443 5.08382 14.957 5 14.75 5L9.75 0ZM14 6.5H10.75C9.83183 6.5 9.07881 5.79289 9.0058 4.89353L9 4.75V1.5H2.75C2.05964 1.5 1.5 2.05964 1.5 2.75V16.75C1.5 17.4404 2.05964 18 2.75 18H12.75C13.4404 18 14 17.4404 14 16.75V6.5ZM5 13.75C5 12.7835 5.7835 12 6.75 12C6.83488 12 6.91835 12.006 7 12.0177V8.75C7 8.22731 7.51568 7.87593 7.99104 8.0395L8.08541 8.07918L10.0854 9.07918C10.4559 9.26442 10.6061 9.71493 10.4208 10.0854C10.251 10.425 9.85832 10.5795 9.50868 10.4602L9.41459 10.4208L8.5 9.963V13.75C8.5 14.7165 7.7165 15.5 6.75 15.5C5.7835 15.5 5 14.7165 5 13.75ZM7 13.75C7 13.6119 6.88807 13.5 6.75 13.5C6.61193 13.5 6.5 13.6119 6.5 13.75C6.5 13.8881 6.61193 14 6.75 14C6.88807 14 7 13.8881 7 13.75Z" fill="#75668D"/>
</svg>
